# xmcd
#
# Track frame offsets:
#	150
#	13590
#	26522
#	40442
#	53747
#	66795
#	79655
#	92952
#	106392
#	119755
#	136312
#	151560
#	164787
#	178162
#
# Disc length: 2516 seconds
#
# Revision: 1
# Processed by: cddbd v1.4PL0 Copyright (c) Steve Scherf et al.
# Submitted via: audiograbber 1.81.03
#
DISCID=bb09d20e
DTITLE=Late Night Sax - Moments in Love
DYEAR=1900
DGENRE=Blues
TTITLE0=J.Lennon - Jealous Guy
TTITLE1=A.Hammond/C.B.Sager - When i need you
TTITLE2=E.John/B.Taupin/D.Johnstone - I guess That`s why they call it the Blues
TTITLE3=B.Johnston - I write the Songs
TTITLE4=C.Fox/N.Gimble - Killing me softly
TTITLE5=R.Orbison/J.Melson - Crying
TTITLE6=David/Hampton - Sea of heartbreak
TTITLE7=B.Segar - We`ve got tonight
TTITLE8=N.Diamond - Red red Wine
TTITLE9=J.Tzuke - Stay whith me till dawn
TTITLE10=B.Joel - Just the way you are
TTITLE11=S.English/R.Kerr - Mandy
TTITLE12=J.Revaux/C.Francois/G.Thibault/P.Anka - My Way
TTITLE13=Sondheim - Send in the Clowns
EXTD=
EXTT0=
EXTT1=
EXTT2=
EXTT3=
EXTT4=
EXTT5=
EXTT6=
EXTT7=
EXTT8=
EXTT9=
EXTT10=
EXTT11=
EXTT12=
EXTT13=
PLAYORDER=
